<svg width="21" height="20" viewBox="0 0 21 20" fill="none" xmlns="http://www.w3.org/2000/svg">
<path d="M15.7191 6.27907C15.7191 7.30658 14.8861 8.13954 13.8586 8.13954C12.8311 8.13954 11.9982 7.30658 11.9982 6.27907C11.9982 5.25156 12.8311 4.4186 13.8586 4.4186C14.8861 4.4186 15.7191 5.25156 15.7191 6.27907Z" fill="white"/>
<path fill-rule="evenodd" clip-rule="evenodd" d="M10.1911 1.87155e-07H10.0843C7.93699 -1.13957e-05 6.25415 -2.04596e-05 4.94114 0.176509C3.5972 0.357197 2.53672 0.734258 1.70433 1.56664C0.871953 2.39902 0.494892 3.45951 0.314204 4.80345C0.137675 6.11646 0.137684 7.79928 0.137695 9.94661V10.0534C0.137684 12.2007 0.137675 13.8835 0.314204 15.1966C0.494892 16.5405 0.871953 17.601 1.70433 18.4334C2.53672 19.2657 3.5972 19.6428 4.94114 19.8235C6.25415 20 7.93698 20 10.0843 20H10.1911C12.3384 20 14.0212 20 15.3343 19.8235C16.6782 19.6428 17.7387 19.2657 18.5711 18.4334C19.4034 17.601 19.7805 16.5405 19.9612 15.1966C20.1377 13.8835 20.1377 12.2007 20.1377 10.0534V9.94663C20.1377 7.79929 20.1377 6.11646 19.9612 4.80345C19.7805 3.45951 19.4034 2.39902 18.5711 1.56664C17.7387 0.734258 16.6782 0.357197 15.3343 0.176509C14.0212 -2.04596e-05 12.3384 -1.13957e-05 10.1911 1.87155e-07ZM2.69099 2.5533C3.22091 2.02339 3.93786 1.7193 5.12707 1.55942C6.33635 1.39683 7.92539 1.39535 10.1377 1.39535C12.35 1.39535 13.939 1.39683 15.1483 1.55942C16.3375 1.7193 17.0545 2.02339 17.5844 2.5533C18.1143 3.08321 18.4184 3.80016 18.5783 4.98937C18.7409 6.19866 18.7423 7.7877 18.7423 10C18.7423 10.4188 18.7423 10.8153 18.7411 11.1911L18.5345 11.1625C15.8892 10.7962 13.4684 12.1714 12.2357 14.2443C10.6455 10.221 6.44322 7.47727 1.74768 8.1515L1.53766 8.18178C1.54824 6.87434 1.58298 5.83829 1.69711 4.98937C1.857 3.80016 2.16108 3.08321 2.69099 2.5533Z" fill="white"/>
</svg>
